<?xml version="1.0" encoding="utf-8" standalone="no"?>
<!DOCTYPE svg PUBLIC "-//W3C//DTD SVG 1.1//EN"
  "http://www.w3.org/Graphics/SVG/1.1/DTD/svg11.dtd">
<svg xmlns:xlink="http://www.w3.org/1999/xlink" width="523.375137pt" height="188.150732pt" viewBox="0 0 523.375137 188.150732" xmlns="http://www.w3.org/2000/svg" version="1.1">
 <metadata>
  <rdf:RDF xmlns:dc="http://purl.org/dc/elements/1.1/" xmlns:cc="http://creativecommons.org/ns#" xmlns:rdf="http://www.w3.org/1999/02/22-rdf-syntax-ns#">
   <cc:Work>
    <dc:type rdf:resource="http://purl.org/dc/dcmitype/StillImage"/>
    <dc:date>2026-08-26T09:13:19.512686</dc:date>
    <dc:format>image/svg+xml</dc:format>
    <dc:creator>
     <cc:Agent>
      <dc:title>Matplotlib v3.11.1, https://matplotlib.org/</dc:title>
     </cc:Agent>
    </dc:creator>
   </cc:Work>
  </rdf:RDF>
 </metadata>
 <defs>
  <style type="text/css">*{stroke-linejoin: round; stroke-linecap: butt}</style>
 </defs>
 <g id="figure_1">
  <g id="patch_1">
   <path d="M 0 188.150732 
L 523.375137 188.150732 
L 523.375137 0 
L 0 0 
z
" style="fill: #ffffff"/>
  </g>
  <g id="axes_1">
   <g id="patch_2">
    <path d="M 33.804473 159.79127 
L 516.175137 159.79127 
L 516.175137 7.2 
L 33.804473 7.2 
z
" style="fill: #ffffff"/>
   </g>
   <g id="matplotlib.axis_1">
    <g id="xtick_1">
     <g id="line2d_1">
      <defs>
       <path id="mbd58c6abe1" d="M 0 0 
L 0 3.5 
" style="stroke: #000000; stroke-width: 0.8"/>
      </defs>
      <g>
       <use xlink:href="#mbd58c6abe1" x="115.528428" y="159.79127" style="stroke: #000000; stroke-width: 0.8"/>
      </g>
     </g>
     <g id="text_1">
      <text style="font-size: 6.5px; font-family: 'Arial', 'DejaVu Sans', sans-serif" transform="translate(105.231514 172.014312)">Qwen3</text>
      <text style="font-size: 6.5px; font-family: 'Arial', 'DejaVu Sans', sans-serif" transform="translate(101.390928 179.095503)">Recall@8</text>
     </g>
    </g>
    <g id="xtick_2">
     <g id="line2d_2">
      <g>
       <use xlink:href="#mbd58c6abe1" x="274.989805" y="159.79127" style="stroke: #000000; stroke-width: 0.8"/>
      </g>
     </g>
     <g id="text_2">
      <text style="font-size: 6.5px; font-family: 'Arial', 'DejaVu Sans', sans-serif" transform="translate(254.576758 172.01063)">DeepSeek-R1</text>
      <text style="font-size: 6.5px; font-family: 'Arial', 'DejaVu Sans', sans-serif" transform="translate(260.852305 179.091821)">Recall@8</text>
     </g>
    </g>
    <g id="xtick_3">
     <g id="line2d_3">
      <g>
       <use xlink:href="#mbd58c6abe1" x="434.451181" y="159.79127" style="stroke: #000000; stroke-width: 0.8"/>
      </g>
     </g>
     <g id="text_3">
      <text style="font-size: 6.5px; font-family: 'Arial', 'DejaVu Sans', sans-serif" transform="translate(423.792705 172.01063)">Llama4</text>
      <text style="font-size: 6.5px; font-family: 'Arial', 'DejaVu Sans', sans-serif" transform="translate(420.313681 179.091821)">Recall@1</text>
     </g>
    </g>
   </g>
   <g id="matplotlib.axis_2">
    <g id="ytick_1">
     <g id="line2d_4">
      <path d="M 33.804473 159.79127 
L 516.175137 159.79127 
" clip-path="url(#p0a1aca8f26)" style="fill: none; stroke: #e7e9eb; stroke-width: 0.6; stroke-linecap: square"/>
     </g>
     <g id="line2d_5">
      <defs>
       <path id="me022b90429" d="M 0 0 
L -3.5 0 
" style="stroke: #000000; stroke-width: 0.8"/>
      </defs>
      <g>
       <use xlink:href="#me022b90429" x="33.804473" y="159.79127" style="stroke: #000000; stroke-width: 0.8"/>
      </g>
     </g>
     <g id="text_4">
      <text style="font-size: 6.5px; font-family: 'Arial', 'DejaVu Sans', sans-serif; text-anchor: end" x="26.804473" y="162.157358" transform="rotate(-0 26.804473 162.157358)">0.0</text>
     </g>
    </g>
    <g id="ytick_2">
     <g id="line2d_6">
      <path d="M 33.804473 135.948884 
L 516.175137 135.948884 
" clip-path="url(#p0a1aca8f26)" style="fill: none; stroke: #e7e9eb; stroke-width: 0.6; stroke-linecap: square"/>
     </g>
     <g id="line2d_7">
      <g>
       <use xlink:href="#me022b90429" x="33.804473" y="135.948884" style="stroke: #000000; stroke-width: 0.8"/>
      </g>
     </g>
     <g id="text_5">
      <text style="font-size: 6.5px; font-family: 'Arial', 'DejaVu Sans', sans-serif; text-anchor: end" x="26.804473" y="138.314973" transform="rotate(-0 26.804473 138.314973)">0.1</text>
     </g>
    </g>
    <g id="ytick_3">
     <g id="line2d_8">
      <path d="M 33.804473 112.106498 
L 516.175137 112.106498 
" clip-path="url(#p0a1aca8f26)" style="fill: none; stroke: #e7e9eb; stroke-width: 0.6; stroke-linecap: square"/>
     </g>
     <g id="line2d_9">
      <g>
       <use xlink:href="#me022b90429" x="33.804473" y="112.106498" style="stroke: #000000; stroke-width: 0.8"/>
      </g>
     </g>
     <g id="text_6">
      <text style="font-size: 6.5px; font-family: 'Arial', 'DejaVu Sans', sans-serif; text-anchor: end" x="26.804473" y="114.472587" transform="rotate(-0 26.804473 114.472587)">0.2</text>
     </g>
    </g>
    <g id="ytick_4">
     <g id="line2d_10">
      <path d="M 33.804473 88.264112 
L 516.175137 88.264112 
" clip-path="url(#p0a1aca8f26)" style="fill: none; stroke: #e7e9eb; stroke-width: 0.6; stroke-linecap: square"/>
     </g>
     <g id="line2d_11">
      <g>
       <use xlink:href="#me022b90429" x="33.804473" y="88.264112" style="stroke: #000000; stroke-width: 0.8"/>
      </g>
     </g>
     <g id="text_7">
      <text style="font-size: 6.5px; font-family: 'Arial', 'DejaVu Sans', sans-serif; text-anchor: end" x="26.804473" y="90.630201" transform="rotate(-0 26.804473 90.630201)">0.3</text>
     </g>
    </g>
    <g id="ytick_5">
     <g id="line2d_12">
      <path d="M 33.804473 64.421726 
L 516.175137 64.421726 
" clip-path="url(#p0a1aca8f26)" style="fill: none; stroke: #e7e9eb; stroke-width: 0.6; stroke-linecap: square"/>
     </g>
     <g id="line2d_13">
      <g>
       <use xlink:href="#me022b90429" x="33.804473" y="64.421726" style="stroke: #000000; stroke-width: 0.8"/>
      </g>
     </g>
     <g id="text_8">
      <text style="font-size: 6.5px; font-family: 'Arial', 'DejaVu Sans', sans-serif; text-anchor: end" x="26.804473" y="66.787815" transform="rotate(-0 26.804473 66.787815)">0.4</text>
     </g>
    </g>
    <g id="ytick_6">
     <g id="line2d_14">
      <path d="M 33.804473 40.57934 
L 516.175137 40.57934 
" clip-path="url(#p0a1aca8f26)" style="fill: none; stroke: #e7e9eb; stroke-width: 0.6; stroke-linecap: square"/>
     </g>
     <g id="line2d_15">
      <g>
       <use xlink:href="#me022b90429" x="33.804473" y="40.57934" style="stroke: #000000; stroke-width: 0.8"/>
      </g>
     </g>
     <g id="text_9">
      <text style="font-size: 6.5px; font-family: 'Arial', 'DejaVu Sans', sans-serif; text-anchor: end" x="26.804473" y="42.945429" transform="rotate(-0 26.804473 42.945429)">0.5</text>
     </g>
    </g>
    <g id="ytick_7">
     <g id="line2d_16">
      <path d="M 33.804473 16.736954 
L 516.175137 16.736954 
" clip-path="url(#p0a1aca8f26)" style="fill: none; stroke: #e7e9eb; stroke-width: 0.6; stroke-linecap: square"/>
     </g>
     <g id="line2d_17">
      <g>
       <use xlink:href="#me022b90429" x="33.804473" y="16.736954" style="stroke: #000000; stroke-width: 0.8"/>
      </g>
     </g>
     <g id="text_10">
      <text style="font-size: 6.5px; font-family: 'Arial', 'DejaVu Sans', sans-serif; text-anchor: end" x="26.804473" y="19.103043" transform="rotate(-0 26.804473 19.103043)">0.6</text>
     </g>
    </g>
    <g id="text_11">
     <text style="font-size: 7px; font-family: 'Arial', 'DejaVu Sans', sans-serif; text-anchor: middle" x="12.296191" y="83.495635" transform="rotate(-90 12.296191 83.495635)">Native-budget recall</text>
    </g>
   </g>
   <g id="patch_3">
    <path d="M 33.804473 159.79127 
L 33.804473 7.2 
" style="fill: none; stroke: #000000; stroke-width: 0.8; stroke-linejoin: miter; stroke-linecap: square"/>
   </g>
   <g id="patch_4">
    <path d="M 33.804473 159.79127 
L 516.175137 159.79127 
" style="fill: none; stroke: #000000; stroke-width: 0.8; stroke-linejoin: miter; stroke-linecap: square"/>
   </g>
   <g id="patch_5">
    <path d="M 55.730412 159.79127 
L 79.649618 159.79127 
L 79.649618 56.03224 
L 55.730412 56.03224 
z
" clip-path="url(#p0a1aca8f26)" style="fill: #a7b0b8"/>
   </g>
   <g id="patch_6">
    <path d="M 215.191788 159.79127 
L 239.110995 159.79127 
L 239.110995 108.97519 
L 215.191788 108.97519 
z
" clip-path="url(#p0a1aca8f26)" style="fill: #a7b0b8"/>
   </g>
   <g id="patch_7">
    <path d="M 374.653165 159.79127 
L 398.572372 159.79127 
L 398.572372 81.168406 
L 374.653165 81.168406 
z
" clip-path="url(#p0a1aca8f26)" style="fill: #a7b0b8"/>
   </g>
   <g id="patch_8">
    <path d="M 79.649618 159.79127 
L 103.568825 159.79127 
L 103.568825 56.54901 
L 79.649618 56.54901 
z
" clip-path="url(#p0a1aca8f26)" style="fill: #7d8c99"/>
   </g>
   <g id="patch_9">
    <path d="M 239.110995 159.79127 
L 263.030201 159.79127 
L 263.030201 109.218942 
L 239.110995 109.218942 
z
" clip-path="url(#p0a1aca8f26)" style="fill: #7d8c99"/>
   </g>
   <g id="patch_10">
    <path d="M 398.572372 159.79127 
L 422.491578 159.79127 
L 422.491578 80.858917 
L 398.572372 80.858917 
z
" clip-path="url(#p0a1aca8f26)" style="fill: #7d8c99"/>
   </g>
   <g id="patch_11">
    <path d="M 103.568825 159.79127 
L 127.488031 159.79127 
L 127.488031 34.184355 
L 103.568825 34.184355 
z
" clip-path="url(#p0a1aca8f26)" style="fill: #91b7d8"/>
   </g>
   <g id="patch_12">
    <path d="M 263.030201 159.79127 
L 286.949408 159.79127 
L 286.949408 95.296598 
L 263.030201 95.296598 
z
" clip-path="url(#p0a1aca8f26)" style="fill: #91b7d8"/>
   </g>
   <g id="patch_13">
    <path d="M 422.491578 159.79127 
L 446.410784 159.79127 
L 446.410784 89.75315 
L 422.491578 89.75315 
z
" clip-path="url(#p0a1aca8f26)" style="fill: #91b7d8"/>
   </g>
   <g id="patch_14">
    <path d="M 127.488031 159.79127 
L 151.407238 159.79127 
L 151.407238 33.977397 
L 127.488031 33.977397 
z
" clip-path="url(#p0a1aca8f26)" style="fill: #5f88b2"/>
   </g>
   <g id="patch_15">
    <path d="M 286.949408 159.79127 
L 310.868614 159.79127 
L 310.868614 94.999719 
L 286.949408 94.999719 
z
" clip-path="url(#p0a1aca8f26)" style="fill: #5f88b2"/>
   </g>
   <g id="patch_16">
    <path d="M 446.410784 159.79127 
L 470.329991 159.79127 
L 470.329991 87.698885 
L 446.410784 87.698885 
z
" clip-path="url(#p0a1aca8f26)" style="fill: #5f88b2"/>
   </g>
   <g id="patch_17">
    <path d="M 151.407238 159.79127 
L 175.326444 159.79127 
L 175.326444 27.266545 
L 151.407238 27.266545 
z
" clip-path="url(#p0a1aca8f26)" style="fill: #d55e5e"/>
   </g>
   <g id="patch_18">
    <path d="M 310.868614 159.79127 
L 334.787821 159.79127 
L 334.787821 84.156638 
L 310.868614 84.156638 
z
" clip-path="url(#p0a1aca8f26)" style="fill: #d55e5e"/>
   </g>
   <g id="patch_19">
    <path d="M 470.329991 159.79127 
L 494.249197 159.79127 
L 494.249197 73.900973 
L 470.329991 73.900973 
z
" clip-path="url(#p0a1aca8f26)" style="fill: #d55e5e"/>
   </g>
   <g id="legend_1">
    <g id="patch_20">
     <path d="M 313.796074 29.261953 
L 511.975137 29.261953 
Q 513.175137 29.261953 513.175137 28.061953 
L 513.175137 11.4 
Q 513.175137 10.2 511.975137 10.2 
L 313.796074 10.2 
Q 312.596074 10.2 312.596074 11.4 
L 312.596074 28.061953 
Q 312.596074 29.261953 313.796074 29.261953 
z
" style="fill: #ffffff; opacity: 0.8; stroke: #cccccc; stroke-linejoin: miter"/>
    </g>
    <g id="patch_21">
     <path d="M 314.996074 16.968164 
L 326.996074 16.968164 
L 326.996074 12.768164 
L 314.996074 12.768164 
z
" style="fill: #a7b0b8"/>
    </g>
    <g id="text_12">
     <text style="font-size: 6px; font-family: 'Arial', 'DejaVu Sans', sans-serif; text-anchor: start" x="331.796074" y="16.968164" transform="rotate(-0 331.796074 16.968164)">Paper Heatmap</text>
    </g>
    <g id="patch_22">
     <path d="M 314.996074 25.599023 
L 326.996074 25.599023 
L 326.996074 21.399023 
L 314.996074 21.399023 
z
" style="fill: #7d8c99"/>
    </g>
    <g id="text_13">
     <text style="font-size: 6px; font-family: 'Arial', 'DejaVu Sans', sans-serif; text-anchor: start" x="331.796074" y="25.599023" transform="rotate(-0 331.796074 25.599023)">Request-aware Heatmap</text>
    </g>
    <g id="patch_23">
     <path d="M 410.491699 16.968164 
L 422.491699 16.968164 
L 422.491699 12.768164 
L 410.491699 12.768164 
z
" style="fill: #91b7d8"/>
    </g>
    <g id="text_14">
     <text style="font-size: 6px; font-family: 'Arial', 'DejaVu Sans', sans-serif; text-anchor: start" x="427.291699" y="16.968164" transform="rotate(-0 427.291699 16.968164)">GRU-only</text>
    </g>
    <g id="patch_24">
     <path d="M 410.491699 25.599141 
L 422.491699 25.599141 
L 422.491699 21.399141 
L 410.491699 21.399141 
z
" style="fill: #5f88b2"/>
    </g>
    <g id="text_15">
     <text style="font-size: 6px; font-family: 'Arial', 'DejaVu Sans', sans-serif; text-anchor: start" x="427.291699" y="25.599141" transform="rotate(-0 427.291699 25.599141)">TCN-only</text>
    </g>
    <g id="patch_25">
     <path d="M 465.628887 16.968164 
L 477.628887 16.968164 
L 477.628887 12.768164 
L 465.628887 12.768164 
z
" style="fill: #d55e5e"/>
    </g>
    <g id="text_16">
     <text style="font-size: 6px; font-family: 'Arial', 'DejaVu Sans', sans-serif; text-anchor: start" x="482.428887" y="16.968164" transform="rotate(-0 482.428887 16.968164)">RouteCast</text>
    </g>
   </g>
  </g>
 </g>
 <defs>
  <clipPath id="p0a1aca8f26">
   <rect x="33.804473" y="7.2" width="482.370664" height="152.59127"/>
  </clipPath>
 </defs>
</svg>
