<?xml version="1.0" encoding="utf-8" standalone="no"?>
<!DOCTYPE svg PUBLIC "-//W3C//DTD SVG 1.1//EN"
  "http://www.w3.org/Graphics/SVG/1.1/DTD/svg11.dtd">
<svg xmlns:xlink="http://www.w3.org/1999/xlink" width="240.854945pt" height="309.485775pt" viewBox="0 0 240.854945 309.485775" xmlns="http://www.w3.org/2000/svg" version="1.1">
 <metadata>
  <rdf:RDF xmlns:dc="http://purl.org/dc/elements/1.1/" xmlns:cc="http://creativecommons.org/ns#" xmlns:rdf="http://www.w3.org/1999/02/22-rdf-syntax-ns#">
   <cc:Work>
    <dc:type rdf:resource="http://purl.org/dc/dcmitype/StillImage"/>
    <dc:date>2026-08-25T10:59:33.682985</dc:date>
    <dc:format>image/svg+xml</dc:format>
    <dc:creator>
     <cc:Agent>
      <dc:title>Matplotlib v3.11.1, https://matplotlib.org/</dc:title>
     </cc:Agent>
    </dc:creator>
   </cc:Work>
  </rdf:RDF>
 </metadata>
 <defs>
  <style type="text/css">*{stroke-linejoin: round; stroke-linecap: butt}</style>
 </defs>
 <g id="figure_1">
  <g id="patch_1">
   <path d="M 0 309.485775 
L 240.854945 309.485775 
L 240.854945 0 
L 0 0 
z
" style="fill: #ffffff"/>
  </g>
  <g id="axes_1">
   <g id="patch_2">
    <path d="M 37.418945 120.603734 
L 233.654945 120.603734 
L 233.654945 18.660205 
L 37.418945 18.660205 
z
" style="fill: #ffffff"/>
   </g>
   <g id="matplotlib.axis_1">
    <g id="xtick_1">
     <g id="line2d_1">
      <defs>
       <path id="m7f1657fc85" d="M 0 0 
L 0 3.5 
" style="stroke: #000000; stroke-width: 0.8"/>
      </defs>
      <g>
       <use xlink:href="#m7f1657fc85" x="68.971138" y="120.603734" style="stroke: #000000; stroke-width: 0.8"/>
      </g>
     </g>
     <g id="text_1">
      <text style="font-size: 6.5px; font-family: 'Arial', 'Helvetica', 'DejaVu Sans', sans-serif; text-anchor: middle" x="68.971138" y="132.339594" transform="rotate(-0 68.971138 132.339594)">Qwen3</text>
     </g>
    </g>
    <g id="xtick_2">
     <g id="line2d_2">
      <g>
       <use xlink:href="#m7f1657fc85" x="135.536945" y="120.603734" style="stroke: #000000; stroke-width: 0.8"/>
      </g>
     </g>
     <g id="text_2">
      <text style="font-size: 6.5px; font-family: 'Arial', 'Helvetica', 'DejaVu Sans', sans-serif; text-anchor: middle" x="135.536945" y="132.335912" transform="rotate(-0 135.536945 132.335912)">DeepSeek-R1</text>
     </g>
    </g>
    <g id="xtick_3">
     <g id="line2d_3">
      <g>
       <use xlink:href="#m7f1657fc85" x="202.102753" y="120.603734" style="stroke: #000000; stroke-width: 0.8"/>
      </g>
     </g>
     <g id="text_3">
      <text style="font-size: 6.5px; font-family: 'Arial', 'Helvetica', 'DejaVu Sans', sans-serif" transform="translate(191.444276 132.823095)">Llama4</text>
      <text style="font-size: 6.5px; font-family: 'Arial', 'Helvetica', 'DejaVu Sans', sans-serif" transform="translate(189.101737 139.897558)">Maverick</text>
     </g>
    </g>
   </g>
   <g id="matplotlib.axis_2">
    <g id="ytick_1">
     <g id="line2d_4">
      <path d="M 37.418945 120.603734 
L 233.654945 120.603734 
" clip-path="url(#p9e4160eec9)" style="fill: none; stroke: #e7e9eb; stroke-width: 0.6; stroke-linecap: square"/>
     </g>
     <g id="line2d_5">
      <defs>
       <path id="m3a37687ebf" d="M 0 0 
L -3.5 0 
" style="stroke: #000000; stroke-width: 0.8"/>
      </defs>
      <g>
       <use xlink:href="#m3a37687ebf" x="37.418945" y="120.603734" style="stroke: #000000; stroke-width: 0.8"/>
      </g>
     </g>
     <g id="text_4">
      <text style="font-size: 6.5px; font-family: 'Arial', 'Helvetica', 'DejaVu Sans', sans-serif; text-anchor: end" x="30.418945" y="122.969823" transform="rotate(-0 30.418945 122.969823)">0.0</text>
     </g>
    </g>
    <g id="ytick_2">
     <g id="line2d_6">
      <path d="M 37.418945 95.236615 
L 233.654945 95.236615 
" clip-path="url(#p9e4160eec9)" style="fill: none; stroke: #e7e9eb; stroke-width: 0.6; stroke-linecap: square"/>
     </g>
     <g id="line2d_7">
      <g>
       <use xlink:href="#m3a37687ebf" x="37.418945" y="95.236615" style="stroke: #000000; stroke-width: 0.8"/>
      </g>
     </g>
     <g id="text_5">
      <text style="font-size: 6.5px; font-family: 'Arial', 'Helvetica', 'DejaVu Sans', sans-serif; text-anchor: end" x="30.418945" y="97.602704" transform="rotate(-0 30.418945 97.602704)">0.1</text>
     </g>
    </g>
    <g id="ytick_3">
     <g id="line2d_8">
      <path d="M 37.418945 69.869495 
L 233.654945 69.869495 
" clip-path="url(#p9e4160eec9)" style="fill: none; stroke: #e7e9eb; stroke-width: 0.6; stroke-linecap: square"/>
     </g>
     <g id="line2d_9">
      <g>
       <use xlink:href="#m3a37687ebf" x="37.418945" y="69.869495" style="stroke: #000000; stroke-width: 0.8"/>
      </g>
     </g>
     <g id="text_6">
      <text style="font-size: 6.5px; font-family: 'Arial', 'Helvetica', 'DejaVu Sans', sans-serif; text-anchor: end" x="30.418945" y="72.235584" transform="rotate(-0 30.418945 72.235584)">0.2</text>
     </g>
    </g>
    <g id="ytick_4">
     <g id="line2d_10">
      <path d="M 37.418945 44.502376 
L 233.654945 44.502376 
" clip-path="url(#p9e4160eec9)" style="fill: none; stroke: #e7e9eb; stroke-width: 0.6; stroke-linecap: square"/>
     </g>
     <g id="line2d_11">
      <g>
       <use xlink:href="#m3a37687ebf" x="37.418945" y="44.502376" style="stroke: #000000; stroke-width: 0.8"/>
      </g>
     </g>
     <g id="text_7">
      <text style="font-size: 6.5px; font-family: 'Arial', 'Helvetica', 'DejaVu Sans', sans-serif; text-anchor: end" x="30.418945" y="46.868465" transform="rotate(-0 30.418945 46.868465)">0.3</text>
     </g>
    </g>
    <g id="ytick_5">
     <g id="line2d_12">
      <path d="M 37.418945 19.135256 
L 233.654945 19.135256 
" clip-path="url(#p9e4160eec9)" style="fill: none; stroke: #e7e9eb; stroke-width: 0.6; stroke-linecap: square"/>
     </g>
     <g id="line2d_13">
      <g>
       <use xlink:href="#m3a37687ebf" x="37.418945" y="19.135256" style="stroke: #000000; stroke-width: 0.8"/>
      </g>
     </g>
     <g id="text_8">
      <text style="font-size: 6.5px; font-family: 'Arial', 'Helvetica', 'DejaVu Sans', sans-serif; text-anchor: end" x="30.418945" y="21.501345" transform="rotate(-0 30.418945 21.501345)">0.4</text>
     </g>
    </g>
    <g id="text_9">
     <text style="font-size: 7px; font-family: 'Arial', 'Helvetica', 'DejaVu Sans', sans-serif; text-anchor: middle" x="15.910801" y="69.63197" transform="rotate(-90 15.910801 69.63197)">Expected calibration error</text>
    </g>
   </g>
   <g id="patch_3">
    <path d="M 46.338763 120.603734 
L 68.971138 120.603734 
L 68.971138 47.184077 
L 46.338763 47.184077 
z
" clip-path="url(#p9e4160eec9)" style="fill: #a7b0b8"/>
   </g>
   <g id="patch_4">
    <path d="M 112.904571 120.603734 
L 135.536945 120.603734 
L 135.536945 23.514659 
L 112.904571 23.514659 
z
" clip-path="url(#p9e4160eec9)" style="fill: #a7b0b8"/>
   </g>
   <g id="patch_5">
    <path d="M 179.470378 120.603734 
L 202.102753 120.603734 
L 202.102753 89.248275 
L 179.470378 89.248275 
z
" clip-path="url(#p9e4160eec9)" style="fill: #a7b0b8"/>
   </g>
   <g id="patch_6">
    <path d="M 68.971138 120.603734 
L 91.603512 120.603734 
L 91.603512 49.548796 
L 68.971138 49.548796 
z
" clip-path="url(#p9e4160eec9)" style="fill: #d55e5e"/>
   </g>
   <g id="patch_7">
    <path d="M 135.536945 120.603734 
L 158.16932 120.603734 
L 158.16932 50.509526 
L 135.536945 50.509526 
z
" clip-path="url(#p9e4160eec9)" style="fill: #d55e5e"/>
   </g>
   <g id="patch_8">
    <path d="M 202.102753 120.603734 
L 224.735127 120.603734 
L 224.735127 88.897326 
L 202.102753 88.897326 
z
" clip-path="url(#p9e4160eec9)" style="fill: #d55e5e"/>
   </g>
   <g id="patch_9">
    <path d="M 37.418945 120.603734 
L 37.418945 18.660205 
" style="fill: none; stroke: #000000; stroke-width: 0.8; stroke-linejoin: miter; stroke-linecap: square"/>
   </g>
   <g id="patch_10">
    <path d="M 37.418945 120.603734 
L 233.654945 120.603734 
" style="fill: none; stroke: #000000; stroke-width: 0.8; stroke-linejoin: miter; stroke-linecap: square"/>
   </g>
   <g id="text_10">
    <text style="font-weight: 700; font-size: 8px; font-family: 'Arial', 'Helvetica', 'DejaVu Sans', sans-serif; text-anchor: start" x="11.908265" y="18.367812" transform="rotate(-0 11.908265 18.367812)">a</text>
   </g>
   <g id="text_11">
    <text style="font-size: 7.5px; font-family: 'Arial', 'Helvetica', 'DejaVu Sans', sans-serif; text-anchor: middle" x="135.536945" y="12.660205" transform="rotate(-0 135.536945 12.660205)">Calibration effect is model dependent</text>
   </g>
   <g id="legend_1">
    <g id="patch_11">
     <path d="M 42.818945 28.428369 
L 54.818945 28.428369 
L 54.818945 24.228369 
L 42.818945 24.228369 
z
" style="fill: #a7b0b8"/>
    </g>
    <g id="text_12">
     <text style="font-size: 6px; font-family: 'Arial', 'Helvetica', 'DejaVu Sans', sans-serif; text-anchor: start" x="59.618945" y="28.428369" transform="rotate(-0 59.618945 28.428369)">Before</text>
    </g>
    <g id="patch_12">
     <path d="M 89.295508 28.428369 
L 101.295508 28.428369 
L 101.295508 24.228369 
L 89.295508 24.228369 
z
" style="fill: #d55e5e"/>
    </g>
    <g id="text_13">
     <text style="font-size: 6px; font-family: 'Arial', 'Helvetica', 'DejaVu Sans', sans-serif; text-anchor: start" x="106.095508" y="28.428369" transform="rotate(-0 106.095508 28.428369)">After</text>
    </g>
   </g>
  </g>
  <g id="axes_2">
   <g id="patch_13">
    <path d="M 37.418945 278.616205 
L 233.654945 278.616205 
L 233.654945 176.672676 
L 37.418945 176.672676 
z
" style="fill: #ffffff"/>
   </g>
   <g id="matplotlib.axis_3">
    <g id="xtick_4">
     <g id="line2d_14">
      <g>
       <use xlink:href="#m7f1657fc85" x="70.354972" y="278.616205" style="stroke: #000000; stroke-width: 0.8"/>
      </g>
     </g>
     <g id="text_14">
      <text style="font-size: 6.5px; font-family: 'Arial', 'Helvetica', 'DejaVu Sans', sans-serif; text-anchor: middle" x="70.354972" y="290.348383" transform="rotate(-0 70.354972 290.348383)">8</text>
     </g>
    </g>
    <g id="xtick_5">
     <g id="line2d_15">
      <g>
       <use xlink:href="#m7f1657fc85" x="103.729359" y="278.616205" style="stroke: #000000; stroke-width: 0.8"/>
      </g>
     </g>
     <g id="text_15">
      <text style="font-size: 6.5px; font-family: 'Arial', 'Helvetica', 'DejaVu Sans', sans-serif; text-anchor: middle" x="103.729359" y="290.348383" transform="rotate(-0 103.729359 290.348383)">10</text>
     </g>
    </g>
    <g id="xtick_6">
     <g id="line2d_16">
      <g>
       <use xlink:href="#m7f1657fc85" x="137.103746" y="278.616205" style="stroke: #000000; stroke-width: 0.8"/>
      </g>
     </g>
     <g id="text_16">
      <text style="font-size: 6.5px; font-family: 'Arial', 'Helvetica', 'DejaVu Sans', sans-serif; text-anchor: middle" x="137.103746" y="290.348383" transform="rotate(-0 137.103746 290.348383)">12</text>
     </g>
    </g>
    <g id="xtick_7">
     <g id="line2d_17">
      <g>
       <use xlink:href="#m7f1657fc85" x="170.478133" y="278.616205" style="stroke: #000000; stroke-width: 0.8"/>
      </g>
     </g>
     <g id="text_17">
      <text style="font-size: 6.5px; font-family: 'Arial', 'Helvetica', 'DejaVu Sans', sans-serif; text-anchor: middle" x="170.478133" y="290.348383" transform="rotate(-0 170.478133 290.348383)">14</text>
     </g>
    </g>
    <g id="xtick_8">
     <g id="line2d_18">
      <g>
       <use xlink:href="#m7f1657fc85" x="203.85252" y="278.616205" style="stroke: #000000; stroke-width: 0.8"/>
      </g>
     </g>
     <g id="text_18">
      <text style="font-size: 6.5px; font-family: 'Arial', 'Helvetica', 'DejaVu Sans', sans-serif; text-anchor: middle" x="203.85252" y="290.348383" transform="rotate(-0 203.85252 290.348383)">16</text>
     </g>
    </g>
    <g id="text_19">
     <text style="font-size: 7px; font-family: 'Arial', 'Helvetica', 'DejaVu Sans', sans-serif; text-anchor: middle" x="135.536945" y="300.812494" transform="rotate(-0 135.536945 300.812494)">Average candidate width</text>
    </g>
   </g>
   <g id="matplotlib.axis_4">
    <g id="ytick_6">
     <g id="line2d_19">
      <path d="M 37.418945 266.057541 
L 233.654945 266.057541 
" clip-path="url(#p8051b0bab2)" style="fill: none; stroke: #e7e9eb; stroke-width: 0.6; stroke-linecap: square"/>
     </g>
     <g id="line2d_20">
      <g>
       <use xlink:href="#m3a37687ebf" x="37.418945" y="266.057541" style="stroke: #000000; stroke-width: 0.8"/>
      </g>
     </g>
     <g id="text_20">
      <text style="font-size: 6.5px; font-family: 'Arial', 'Helvetica', 'DejaVu Sans', sans-serif; text-anchor: end" x="30.418945" y="268.42363" transform="rotate(-0 30.418945 268.42363)">0.40</text>
     </g>
    </g>
    <g id="ytick_7">
     <g id="line2d_21">
      <path d="M 37.418945 247.577483 
L 233.654945 247.577483 
" clip-path="url(#p8051b0bab2)" style="fill: none; stroke: #e7e9eb; stroke-width: 0.6; stroke-linecap: square"/>
     </g>
     <g id="line2d_22">
      <g>
       <use xlink:href="#m3a37687ebf" x="37.418945" y="247.577483" style="stroke: #000000; stroke-width: 0.8"/>
      </g>
     </g>
     <g id="text_21">
      <text style="font-size: 6.5px; font-family: 'Arial', 'Helvetica', 'DejaVu Sans', sans-serif; text-anchor: end" x="30.418945" y="249.943571" transform="rotate(-0 30.418945 249.943571)">0.45</text>
     </g>
    </g>
    <g id="ytick_8">
     <g id="line2d_23">
      <path d="M 37.418945 229.097424 
L 233.654945 229.097424 
" clip-path="url(#p8051b0bab2)" style="fill: none; stroke: #e7e9eb; stroke-width: 0.6; stroke-linecap: square"/>
     </g>
     <g id="line2d_24">
      <g>
       <use xlink:href="#m3a37687ebf" x="37.418945" y="229.097424" style="stroke: #000000; stroke-width: 0.8"/>
      </g>
     </g>
     <g id="text_22">
      <text style="font-size: 6.5px; font-family: 'Arial', 'Helvetica', 'DejaVu Sans', sans-serif; text-anchor: end" x="30.418945" y="231.463512" transform="rotate(-0 30.418945 231.463512)">0.50</text>
     </g>
    </g>
    <g id="ytick_9">
     <g id="line2d_25">
      <path d="M 37.418945 210.617365 
L 233.654945 210.617365 
" clip-path="url(#p8051b0bab2)" style="fill: none; stroke: #e7e9eb; stroke-width: 0.6; stroke-linecap: square"/>
     </g>
     <g id="line2d_26">
      <g>
       <use xlink:href="#m3a37687ebf" x="37.418945" y="210.617365" style="stroke: #000000; stroke-width: 0.8"/>
      </g>
     </g>
     <g id="text_23">
      <text style="font-size: 6.5px; font-family: 'Arial', 'Helvetica', 'DejaVu Sans', sans-serif; text-anchor: end" x="30.418945" y="212.983453" transform="rotate(-0 30.418945 212.983453)">0.55</text>
     </g>
    </g>
    <g id="ytick_10">
     <g id="line2d_27">
      <path d="M 37.418945 192.137306 
L 233.654945 192.137306 
" clip-path="url(#p8051b0bab2)" style="fill: none; stroke: #e7e9eb; stroke-width: 0.6; stroke-linecap: square"/>
     </g>
     <g id="line2d_28">
      <g>
       <use xlink:href="#m3a37687ebf" x="37.418945" y="192.137306" style="stroke: #000000; stroke-width: 0.8"/>
      </g>
     </g>
     <g id="text_24">
      <text style="font-size: 6.5px; font-family: 'Arial', 'Helvetica', 'DejaVu Sans', sans-serif; text-anchor: end" x="30.418945" y="194.503394" transform="rotate(-0 30.418945 194.503394)">0.60</text>
     </g>
    </g>
    <g id="text_25">
     <text style="font-size: 7px; font-family: 'Arial', 'Helvetica', 'DejaVu Sans', sans-serif; text-anchor: middle" x="12.296191" y="227.64444" transform="rotate(-90 12.296191 227.64444)">Validation Recall</text>
    </g>
   </g>
   <g id="patch_14">
    <path d="M 37.418945 278.616205 
L 37.418945 176.672676 
" style="fill: none; stroke: #000000; stroke-width: 0.8; stroke-linejoin: miter; stroke-linecap: square"/>
   </g>
   <g id="patch_15">
    <path d="M 37.418945 278.616205 
L 233.654945 278.616205 
" style="fill: none; stroke: #000000; stroke-width: 0.8; stroke-linejoin: miter; stroke-linecap: square"/>
   </g>
   <g id="PathCollection_1">
    <defs>
     <path id="ma0bf4e2930" d="M 0 3.24037 
C 0.859356 3.24037 1.683631 2.898944 2.291288 2.291288 
C 2.898944 1.683631 3.24037 0.859356 3.24037 0 
C 3.24037 -0.859356 2.898944 -1.683631 2.291288 -2.291288 
C 1.683631 -2.898944 0.859356 -3.24037 0 -3.24037 
C -0.859356 -3.24037 -1.683631 -2.898944 -2.291288 -2.291288 
C -2.898944 -1.683631 -3.24037 -0.859356 -3.24037 0 
C -3.24037 0.859356 -2.898944 1.683631 -2.291288 2.291288 
C -1.683631 2.898944 -0.859356 3.24037 0 3.24037 
z
" style="stroke: #3b78b5"/>
    </defs>
    <g clip-path="url(#p8051b0bab2)">
     <use xlink:href="#ma0bf4e2930" x="132.949581" y="187.693152" style="fill: #3b78b5; stroke: #3b78b5"/>
    </g>
   </g>
   <g id="text_26">
    <text style="font-size: 6px; font-family: 'Arial', 'Helvetica', 'DejaVu Sans', sans-serif; text-anchor: start" x="138.949581" y="189.693152" transform="rotate(-0 138.949581 189.693152)">Qwen3, m=0.7</text>
   </g>
   <g id="PathCollection_2">
    <defs>
     <path id="m651249c74f" d="M 0 3.24037 
C 0.859356 3.24037 1.683631 2.898944 2.291288 2.291288 
C 2.898944 1.683631 3.24037 0.859356 3.24037 0 
C 3.24037 -0.859356 2.898944 -1.683631 2.291288 -2.291288 
C 1.683631 -2.898944 0.859356 -3.24037 0 -3.24037 
C -0.859356 -3.24037 -1.683631 -2.898944 -2.291288 -2.291288 
C -2.898944 -1.683631 -3.24037 -0.859356 -3.24037 0 
C -3.24037 0.859356 -2.898944 1.683631 -2.291288 2.291288 
C -1.683631 2.898944 -0.859356 3.24037 0 3.24037 
z
" style="stroke: #d98242"/>
    </defs>
    <g clip-path="url(#p8051b0bab2)">
     <use xlink:href="#m651249c74f" x="224.735127" y="273.982408" style="fill: #d98242; stroke: #d98242"/>
    </g>
   </g>
   <g id="text_27">
    <text style="font-size: 6px; font-family: 'Arial', 'Helvetica', 'DejaVu Sans', sans-serif; text-anchor: end" x="218.735127" y="265.982408" transform="rotate(-0 218.735127 265.982408)">DeepSeek-R1, m=0.95</text>
   </g>
   <g id="PathCollection_3">
    <defs>
     <path id="ma7b4997072" d="M 0 3.24037 
C 0.859356 3.24037 1.683631 2.898944 2.291288 2.291288 
C 2.898944 1.683631 3.24037 0.859356 3.24037 0 
C 3.24037 -0.859356 2.898944 -1.683631 2.291288 -2.291288 
C 1.683631 -2.898944 0.859356 -3.24037 0 -3.24037 
C -0.859356 -3.24037 -1.683631 -2.898944 -2.291288 -2.291288 
C -2.898944 -1.683631 -3.24037 -0.859356 -3.24037 0 
C -3.24037 0.859356 -2.898944 1.683631 -2.291288 2.291288 
C -1.683631 2.898944 -0.859356 3.24037 0 3.24037 
z
" style="stroke: #4f9d69"/>
    </defs>
    <g clip-path="url(#p8051b0bab2)">
     <use xlink:href="#ma7b4997072" x="46.338763" y="181.306472" style="fill: #4f9d69; stroke: #4f9d69"/>
    </g>
   </g>
   <g id="text_28">
    <text style="font-size: 6px; font-family: 'Arial', 'Helvetica', 'DejaVu Sans', sans-serif; text-anchor: start" x="52.338763" y="194.306472" transform="rotate(-0 52.338763 194.306472)">Llama4 Maverick, m=0.5</text>
   </g>
   <g id="text_29">
    <text style="font-weight: 700; font-size: 8px; font-family: 'Arial', 'Helvetica', 'DejaVu Sans', sans-serif; text-anchor: start" x="11.908265" y="176.380283" transform="rotate(-0 11.908265 176.380283)">b</text>
   </g>
   <g id="text_30">
    <text style="font-size: 7.5px; font-family: 'Arial', 'Helvetica', 'DejaVu Sans', sans-serif; text-anchor: middle" x="135.536945" y="167.672676" transform="rotate(-0 135.536945 167.672676)">Selected operating points are model specific</text>
   </g>
  </g>
 </g>
 <defs>
  <clipPath id="p9e4160eec9">
   <rect x="37.418945" y="18.660205" width="196.236" height="101.943529"/>
  </clipPath>
  <clipPath id="p8051b0bab2">
   <rect x="37.418945" y="176.672676" width="196.236" height="101.943529"/>
  </clipPath>
 </defs>
</svg>
